<svg xmlns="http://www.w3.org/2000/svg" style="display:none" aria-hidden="true">
  <symbol id="ic-action-deploy-outline" viewBox="0 0 24 24" fill="none" stroke="currentColor" stroke-width="1.75" stroke-linecap="square" stroke-linejoin="miter">
    <path d="M12 19V7"/><path d="M7 12l5-5 5 5"/><path d="M5 19h14"/>
  </symbol>
  <symbol id="ic-action-extract-outline" viewBox="0 0 24 24" fill="none" stroke="currentColor" stroke-width="1.75" stroke-linecap="square" stroke-linejoin="miter">
    <rect x="5" y="4" width="14" height="16" rx="1"/><path d="M12 9v6"/><path d="M9 13l3 3 3-3"/>
  </symbol>
  <symbol id="ic-nav-home-outline" viewBox="0 0 24 24" fill="none" stroke="currentColor" stroke-width="1.75" stroke-linecap="square" stroke-linejoin="miter">
    <path d="M4 11l8-7 8 7"/><path d="M6 10.5V19h12v-8.5"/><path d="M10 19v-5h4v5"/>
  </symbol>
  <symbol id="ic-nav-settings-outline" viewBox="0 0 24 24" fill="none" stroke="currentColor" stroke-width="1.75" stroke-linecap="square" stroke-linejoin="miter">
    <circle cx="12" cy="12" r="3"/><path d="M12 3v2.5M12 18.5V21M3 12h2.5M18.5 12H21M5.6 5.6l1.8 1.8M16.6 16.6l1.8 1.8M18.4 5.6l-1.8 1.8M7.4 16.6l-1.8 1.8"/>
  </symbol>
  <symbol id="ic-status-ready-outline" viewBox="0 0 24 24" fill="none" stroke="currentColor" stroke-width="1.75" stroke-linecap="square" stroke-linejoin="miter">
    <circle cx="12" cy="12" r="8"/><path d="M8.5 12.5l2.5 2.5 4.5-5"/>
  </symbol>
  <symbol id="ic-status-alert-outline" viewBox="0 0 24 24" fill="none" stroke="currentColor" stroke-width="1.75" stroke-linecap="square" stroke-linejoin="miter">
    <path d="M12 4l9 16H3L12 4z"/><path d="M12 10v4"/><path d="M12 17h.01"/>
  </symbol>
  <symbol id="ic-system-link-outline" viewBox="0 0 24 24" fill="none" stroke="currentColor" stroke-width="1.75" stroke-linecap="square" stroke-linejoin="miter">
    <path d="M9 8H7a4 4 0 000 8h2"/><path d="M15 8h2a4 4 0 010 8h-2"/><path d="M8 12h8"/>
  </symbol>
  <symbol id="ic-system-terminal-outline" viewBox="0 0 24 24" fill="none" stroke="currentColor" stroke-width="1.75" stroke-linecap="square" stroke-linejoin="miter">
    <rect x="3" y="5" width="18" height="14" rx="1"/><path d="M7 10l3 2-3 2"/><path d="M12 14h5"/>
  </symbol>
  <symbol id="ic-user-crew-outline" viewBox="0 0 24 24" fill="none" stroke="currentColor" stroke-width="1.75" stroke-linecap="square" stroke-linejoin="miter">
    <circle cx="9" cy="9" r="3"/><circle cx="17" cy="10" r="2.5"/><path d="M3.5 19c.5-3 2.8-4.5 5.5-4.5S14 16 14.5 19"/><path d="M14 15.5c1.5-.8 3.2-.7 4.8.3 1 .6 1.7 1.6 2.2 3.2"/>
  </symbol>
  <symbol id="ic-media-layers-outline" viewBox="0 0 24 24" fill="none" stroke="currentColor" stroke-width="1.75" stroke-linecap="square" stroke-linejoin="miter">
    <path d="M4 8l8-4 8 4-8 4-8-4z"/><path d="M4 12l8 4 8-4"/><path d="M4 16l8 4 8-4"/>
  </symbol>
  <symbol id="ic-status-ready-solid" viewBox="0 0 24 24" fill="currentColor">
    <path fill-rule="evenodd" d="M12 2a10 10 0 100 20 10 10 0 000-20zm4.2 7.3l-5 5.5-2.7-2.7 1.4-1.4 1.3 1.3 3.6-3.9 1.4 1.2z" clip-rule="evenodd"/>
  </symbol>
  <symbol id="ic-status-alert-solid" viewBox="0 0 24 24" fill="currentColor">
    <path d="M12 3.2L22.2 21H1.8L12 3.2zM11.1 10h1.8v5h-1.8v-5zm.9 8.2a1.1 1.1 0 110-2.2 1.1 1.1 0 010 2.2z"/>
  </symbol>
</svg>
